<svg xmlns="http://www.w3.org/2000/svg" viewBox="0 0 1600 600" preserveAspectRatio="xMidYMid slice" role="img" aria-label="Triptyque abstrait évoquant les trois dimensions gouvernance, social et environnement, sous le prisme IA">
<defs>
  <linearGradient id="bg" x1="0" y1="0" x2="1" y2="0">
    <stop offset="0" stop-color="#08153A"/>
    <stop offset="0.45" stop-color="#0F2456"/>
    <stop offset="1" stop-color="#08153A"/>
  </linearGradient>
  <radialGradient id="glow" cx="0.5" cy="0.5" r="0.6">
    <stop offset="0" stop-color="#7DD3E8" stop-opacity="0.18"/>
    <stop offset="1" stop-color="#7DD3E8" stop-opacity="0"/>
  </radialGradient>
</defs>
<rect width="1600" height="600" fill="url(#bg)"/>
<ellipse cx="800" cy="300" rx="600" ry="300" fill="url(#glow)"/>
<g id="zone-G">
<path d="M 40.0 80 L 40.0 135.0 L 40.0 190.0 L 40.0 245.0 L 40.0 300.0 L 40.0 355.0 L 40.0 410.0 L 40.0 465.0 L 40.0 520.0 " stroke="#4FA8D8" stroke-width="0.6" fill="none" opacity="0.60"/>
<path d="M 98.0 80 L 98.8 135.0 L 98.5 190.0 L 98.0 245.0 L 97.5 300.0 L 97.2 355.0 L 97.3 410.0 L 97.7 465.0 L 98.2 520.0 " stroke="#4FA8D8" stroke-width="0.6" fill="none" opacity="0.57"/>
<path d="M 156.0 80 L 156.7 135.0 L 155.6 190.0 L 154.7 245.0 L 154.4 300.0 L 154.9 355.0 L 155.9 410.0 L 156.9 465.0 L 157.5 520.0 " stroke="#4FA8D8" stroke-width="0.6" fill="none" opacity="0.55"/>
<path d="M 214.0 80 L 212.7 135.0 L 211.7 190.0 L 211.8 245.0 L 212.9 300.0 L 214.5 355.0 L 215.9 410.0 L 216.4 465.0 L 215.8 520.0 " stroke="#4FA8D8" stroke-width="0.6" fill="none" opacity="0.52"/>
<path d="M 272.0 80 L 268.8 135.0 L 269.5 190.0 L 271.4 245.0 L 273.6 300.0 L 275.0 355.0 L 275.0 410.0 L 273.6 465.0 L 271.4 520.0 " stroke="#4FA8D8" stroke-width="0.6" fill="none" opacity="0.50"/>
<path d="M 330.0 80 L 327.8 135.0 L 330.5 190.0 L 332.9 245.0 L 334.0 300.0 L 333.2 355.0 L 330.9 410.0 L 328.2 465.0 L 326.3 520.0 " stroke="#4FA8D8" stroke-width="0.6" fill="none" opacity="0.47"/>
<path d="M 388.0 80 L 389.9 135.0 L 392.3 190.0 L 392.7 245.0 L 390.8 300.0 L 387.6 355.0 L 384.6 410.0 L 383.2 465.0 L 384.1 520.0 " stroke="#4FA8D8" stroke-width="0.6" fill="none" opacity="0.45"/>
<path d="M 446.0 80 L 451.5 135.0 L 450.8 190.0 L 447.8 245.0 L 443.9 300.0 L 441.1 355.0 L 440.5 410.0 L 442.5 465.0 L 446.2 520.0 " stroke="#4FA8D8" stroke-width="0.6" fill="none" opacity="0.42"/>
<path d="M 504.0 80 L 508.2 135.0 L 504.2 190.0 L 500.0 245.0 L 497.7 300.0 L 498.4 355.0 L 501.7 410.0 L 506.1 465.0 L 509.5 520.0 " stroke="#4FA8D8" stroke-width="0.6" fill="none" opacity="0.40"/>
<path d="M 562.0 80 L 560.0 135.0 L 556.0 190.0 L 554.8 245.0 L 557.0 300.0 L 561.5 355.0 L 566.3 410.0 L 569.0 465.0 L 568.4 520.0 " stroke="#4FA8D8" stroke-width="0.6" fill="none" opacity="0.38"/>
<path d="M 620.0 80 L 612.3 135.0 L 612.6 190.0 L 616.4 245.0 L 621.9 300.0 L 626.4 355.0 L 628.0 410.0 L 625.8 465.0 L 620.9 520.0 " stroke="#4FA8D8" stroke-width="0.6" fill="none" opacity="0.35"/>
<line x1="40" y1="80.0" x2="620" y2="80.0" stroke="#4FA8D8" stroke-width="0.5" opacity="0.35"/>
<line x1="40" y1="135.0" x2="620" y2="135.0" stroke="#4FA8D8" stroke-width="0.5" opacity="0.35"/>
<line x1="40" y1="190.0" x2="620" y2="190.0" stroke="#4FA8D8" stroke-width="0.5" opacity="0.35"/>
<line x1="40" y1="245.0" x2="620" y2="245.0" stroke="#4FA8D8" stroke-width="0.5" opacity="0.35"/>
<line x1="40" y1="300.0" x2="620" y2="300.0" stroke="#4FA8D8" stroke-width="0.5" opacity="0.35"/>
<line x1="40" y1="355.0" x2="620" y2="355.0" stroke="#4FA8D8" stroke-width="0.5" opacity="0.35"/>
<line x1="40" y1="410.0" x2="620" y2="410.0" stroke="#4FA8D8" stroke-width="0.5" opacity="0.35"/>
<line x1="40" y1="465.0" x2="620" y2="465.0" stroke="#4FA8D8" stroke-width="0.5" opacity="0.35"/>
<line x1="40" y1="520.0" x2="620" y2="520.0" stroke="#4FA8D8" stroke-width="0.5" opacity="0.35"/>
<circle cx="40.0" cy="135.0" r="2.2" fill="#4FA8D8" opacity="0.65"/>
<circle cx="40.0" cy="190.0" r="1.5" fill="#4FA8D8" opacity="0.61"/>
<circle cx="40.0" cy="245.0" r="1.8" fill="#4FA8D8" opacity="0.61"/>
<circle cx="40.0" cy="300.0" r="2.8" fill="#4FA8D8" opacity="0.81"/>
<circle cx="40.0" cy="410.0" r="1.8" fill="#4FA8D8" opacity="0.72"/>
<circle cx="40.0" cy="465.0" r="2.2" fill="#4FA8D8" opacity="0.73"/>
<circle cx="40.0" cy="520.0" r="2.2" fill="#4FA8D8" opacity="0.88"/>
<circle cx="98.0" cy="135.0" r="2.8" fill="#4FA8D8" opacity="0.70"/>
<circle cx="98.0" cy="300.0" r="1.8" fill="#4FA8D8" opacity="0.62"/>
<circle cx="98.0" cy="355.0" r="2.2" fill="#7DD3E8" opacity="0.90"/>
<circle cx="98.0" cy="465.0" r="2.8" fill="#4FA8D8" opacity="0.73"/>
<circle cx="98.0" cy="520.0" r="1.8" fill="#4FA8D8" opacity="0.85"/>
<circle cx="156.0" cy="135.0" r="1.8" fill="#4FA8D8" opacity="0.69"/>
<circle cx="156.0" cy="190.0" r="2.2" fill="#7DD3E8" opacity="0.82"/>
<circle cx="156.0" cy="465.0" r="1.5" fill="#7DD3E8" opacity="0.74"/>
<circle cx="156.0" cy="520.0" r="2.2" fill="#4FA8D8" opacity="0.77"/>
<circle cx="214.0" cy="190.0" r="1.8" fill="#4FA8D8" opacity="0.80"/>
<circle cx="214.0" cy="245.0" r="2.8" fill="#7DD3E8" opacity="0.74"/>
<circle cx="214.0" cy="300.0" r="1.8" fill="#4FA8D8" opacity="0.63"/>
<circle cx="214.0" cy="355.0" r="1.5" fill="#4FA8D8" opacity="0.66"/>
<circle cx="214.0" cy="520.0" r="2.8" fill="#4FA8D8" opacity="0.94"/>
<circle cx="272.0" cy="135.0" r="1.5" fill="#4FA8D8" opacity="0.79"/>
<circle cx="272.0" cy="190.0" r="2.2" fill="#4FA8D8" opacity="0.75"/>
<circle cx="272.0" cy="245.0" r="2.2" fill="#7DD3E8" opacity="0.87"/>
<circle cx="272.0" cy="300.0" r="1.5" fill="#7DD3E8" opacity="0.70"/>
<circle cx="272.0" cy="465.0" r="1.8" fill="#4FA8D8" opacity="0.87"/>
<circle cx="272.0" cy="520.0" r="1.5" fill="#4FA8D8" opacity="0.77"/>
<circle cx="330.0" cy="80.0" r="2.2" fill="#7DD3E8" opacity="0.89"/>
<circle cx="330.0" cy="135.0" r="1.5" fill="#4FA8D8" opacity="0.80"/>
<circle cx="330.0" cy="190.0" r="2.8" fill="#7DD3E8" opacity="0.94"/>
<circle cx="330.0" cy="245.0" r="1.8" fill="#4FA8D8" opacity="0.77"/>
<circle cx="330.0" cy="300.0" r="2.2" fill="#4FA8D8" opacity="0.81"/>
<circle cx="388.0" cy="135.0" r="2.2" fill="#4FA8D8" opacity="0.78"/>
<circle cx="388.0" cy="190.0" r="1.8" fill="#4FA8D8" opacity="0.61"/>
<circle cx="388.0" cy="355.0" r="1.5" fill="#4FA8D8" opacity="0.92"/>
<circle cx="388.0" cy="465.0" r="1.8" fill="#4FA8D8" opacity="0.77"/>
<circle cx="388.0" cy="520.0" r="2.8" fill="#4FA8D8" opacity="0.77"/>
<circle cx="446.0" cy="80.0" r="1.5" fill="#4FA8D8" opacity="0.75"/>
<circle cx="446.0" cy="135.0" r="2.8" fill="#7DD3E8" opacity="0.62"/>
<circle cx="446.0" cy="300.0" r="2.2" fill="#7DD3E8" opacity="0.64"/>
<circle cx="446.0" cy="355.0" r="2.8" fill="#4FA8D8" opacity="0.66"/>
<circle cx="446.0" cy="410.0" r="1.5" fill="#4FA8D8" opacity="0.90"/>
<circle cx="446.0" cy="520.0" r="1.5" fill="#7DD3E8" opacity="0.92"/>
<circle cx="504.0" cy="135.0" r="2.8" fill="#4FA8D8" opacity="0.90"/>
<circle cx="504.0" cy="245.0" r="1.5" fill="#7DD3E8" opacity="0.69"/>
<circle cx="504.0" cy="355.0" r="2.8" fill="#4FA8D8" opacity="0.86"/>
<circle cx="504.0" cy="520.0" r="1.8" fill="#4FA8D8" opacity="0.94"/>
<circle cx="562.0" cy="135.0" r="2.2" fill="#4FA8D8" opacity="0.80"/>
<circle cx="562.0" cy="190.0" r="1.8" fill="#4FA8D8" opacity="0.78"/>
<circle cx="562.0" cy="300.0" r="1.5" fill="#4FA8D8" opacity="0.68"/>
<circle cx="562.0" cy="355.0" r="1.8" fill="#4FA8D8" opacity="0.61"/>
<circle cx="562.0" cy="410.0" r="2.2" fill="#7DD3E8" opacity="0.67"/>
<circle cx="562.0" cy="520.0" r="2.8" fill="#4FA8D8" opacity="0.83"/>
<circle cx="620.0" cy="80.0" r="1.5" fill="#4FA8D8" opacity="0.82"/>
<circle cx="620.0" cy="190.0" r="1.8" fill="#4FA8D8" opacity="0.65"/>
<circle cx="620.0" cy="245.0" r="1.5" fill="#7DD3E8" opacity="0.73"/>
<circle cx="620.0" cy="300.0" r="2.2" fill="#4FA8D8" opacity="0.95"/>
<circle cx="620.0" cy="410.0" r="2.2" fill="#7DD3E8" opacity="0.64"/>
<circle cx="620.0" cy="520.0" r="1.5" fill="#4FA8D8" opacity="0.65"/>
<line x1="98.0" y1="190.0" x2="214.0" y2="300.0" stroke="#7DD3E8" stroke-width="0.4" opacity="0.35"/>
<line x1="156.0" y1="355.0" x2="330.0" y2="245.0" stroke="#7DD3E8" stroke-width="0.4" opacity="0.35"/>
<line x1="272.0" y1="135.0" x2="388.0" y2="300.0" stroke="#7DD3E8" stroke-width="0.4" opacity="0.35"/>
<line x1="388.0" y1="410.0" x2="504.0" y2="245.0" stroke="#7DD3E8" stroke-width="0.4" opacity="0.35"/>
<line x1="446.0" y1="190.0" x2="562.0" y2="355.0" stroke="#7DD3E8" stroke-width="0.4" opacity="0.35"/>
<line x1="214.0" y1="465.0" x2="330.0" y2="355.0" stroke="#7DD3E8" stroke-width="0.4" opacity="0.35"/>
<line x1="504.0" y1="135.0" x2="620.0" y2="410.0" stroke="#7DD3E8" stroke-width="0.4" opacity="0.35"/>
<line x1="40.0" y1="300.0" x2="156.0" y2="465.0" stroke="#7DD3E8" stroke-width="0.4" opacity="0.35"/>
</g>
<g id="zone-S">
<path d="M 750 580 A 80 80 0 0 1 910 580" stroke="#4FA8D8" stroke-width="0.7" fill="none" opacity="0.50"/>
<path d="M 695 580 A 135 135 0 0 1 965 580" stroke="#4FA8D8" stroke-width="0.7" fill="none" opacity="0.46"/>
<path d="M 640 580 A 190 190 0 0 1 1020 580" stroke="#4FA8D8" stroke-width="0.7" fill="none" opacity="0.42"/>
<path d="M 585 580 A 245 245 0 0 1 1075 580" stroke="#4FA8D8" stroke-width="0.7" fill="none" opacity="0.38"/>
<path d="M 530 580 A 300 300 0 0 1 1130 580" stroke="#4FA8D8" stroke-width="0.7" fill="none" opacity="0.34"/>
<path d="M 475 580 A 355 355 0 0 1 1185 580" stroke="#4FA8D8" stroke-width="0.7" fill="none" opacity="0.30"/>
<path d="M 420 580 A 410 410 0 0 1 1240 580" stroke="#4FA8D8" stroke-width="0.7" fill="none" opacity="0.26"/>
<path d="M 560 160 L 580 156.6 L 610 150.5 L 640 146.8 L 670 146.2 L 700 149.0 L 730 154.6 L 760 161.4 L 790 167.9 L 820 172.5 L 850 174.0 L 880 172.1 L 910 167.2 L 940 160.6 L 970 153.8 L 1000 148.5 L 1030 146.1 L 1060 147.0 L 1090 151.2 " stroke="#4FA8D8" stroke-width="0.8" fill="none" opacity="0.35"/>
<path d="M 560 220 L 580 210.5 L 610 206.8 L 640 206.2 L 670 209.0 L 700 214.6 L 730 221.4 L 760 227.9 L 790 232.5 L 820 234.0 L 850 232.1 L 880 227.2 L 910 220.6 L 940 213.8 L 970 208.5 L 1000 206.1 L 1030 207.0 L 1060 211.2 L 1090 217.5 " stroke="#7DD3E8" stroke-width="0.8" fill="none" opacity="0.30"/>
<path d="M 560 290 L 580 276.8 L 610 276.2 L 640 279.0 L 670 284.6 L 700 291.4 L 730 297.9 L 760 302.5 L 790 304.0 L 820 302.1 L 850 297.2 L 880 290.6 L 910 283.8 L 940 278.5 L 970 276.1 L 1000 277.0 L 1030 281.2 L 1060 287.5 L 1090 294.4 " stroke="#4FA8D8" stroke-width="0.8" fill="none" opacity="0.25"/>
<path d="M 560 360 L 580 346.2 L 610 349.0 L 640 354.6 L 670 361.4 L 700 367.9 L 730 372.5 L 760 374.0 L 790 372.1 L 820 367.2 L 850 360.6 L 880 353.8 L 910 348.5 L 940 346.1 L 970 347.0 L 1000 351.2 L 1030 357.5 L 1060 364.4 L 1090 370.2 " stroke="#4FA8D8" stroke-width="0.8" fill="none" opacity="0.20"/>
<circle cx="732.1" cy="188.5" r="1.6" fill="#4FA8D8" opacity="0.65"/>
<circle cx="722.6" cy="305.2" r="1.2" fill="#4FA8D8" opacity="0.57"/>
<circle cx="729.4" cy="101.5" r="1.2" fill="#7DD3E8" opacity="0.50"/>
<circle cx="980.3" cy="331.7" r="1.6" fill="#4FA8D8" opacity="0.44"/>
<circle cx="1090.3" cy="390.2" r="1.2" fill="#4FA8D8" opacity="0.73"/>
<circle cx="894.6" cy="162.2" r="1.2" fill="#4FA8D8" opacity="0.55"/>
<circle cx="1083.9" cy="508.3" r="1.2" fill="#7DD3E8" opacity="0.48"/>
<circle cx="714.7" cy="143.2" r="2.0" fill="#7DD3E8" opacity="0.56"/>
<circle cx="915.2" cy="164.9" r="1.2" fill="#7DD3E8" opacity="0.79"/>
<circle cx="1017.8" cy="470.2" r="1.2" fill="#4FA8D8" opacity="0.77"/>
<circle cx="1002.5" cy="272.9" r="2.0" fill="#7DD3E8" opacity="0.72"/>
<circle cx="724.1" cy="430.7" r="1.2" fill="#4FA8D8" opacity="0.42"/>
<circle cx="834.2" cy="183.8" r="1.6" fill="#4FA8D8" opacity="0.73"/>
<circle cx="1050.5" cy="193.6" r="2.0" fill="#4FA8D8" opacity="0.53"/>
<circle cx="1046.8" cy="506.1" r="1.6" fill="#4FA8D8" opacity="0.60"/>
<circle cx="946.9" cy="454.3" r="1.6" fill="#7DD3E8" opacity="0.45"/>
<circle cx="1104.0" cy="175.0" r="1.6" fill="#4FA8D8" opacity="0.64"/>
<circle cx="766.7" cy="430.3" r="1.6" fill="#7DD3E8" opacity="0.60"/>
<circle cx="788.0" cy="342.2" r="1.6" fill="#4FA8D8" opacity="0.57"/>
<circle cx="860.8" cy="438.7" r="2.0" fill="#7DD3E8" opacity="0.70"/>
<circle cx="942.1" cy="253.0" r="1.2" fill="#7DD3E8" opacity="0.77"/>
<circle cx="916.5" cy="378.6" r="1.2" fill="#7DD3E8" opacity="0.52"/>
</g>
<g id="zone-E">
<path d="M 1060 180 L 1070 184.3 L 1090 185.2 L 1110 185.8 L 1130 186.0 L 1150 185.8 L 1170 185.3 L 1190 184.4 L 1210 183.3 L 1230 182.0 L 1250 180.5 L 1270 179.0 L 1290 177.6 L 1310 176.3 L 1330 175.2 L 1350 174.5 L 1370 174.1 L 1390 174.0 L 1410 174.4 L 1430 175.0 L 1450 176.0 L 1470 177.3 L 1490 178.7 L 1510 180.2 L 1530 181.6 L 1550 183.0 L 1570 184.2 L 1590 185.1 " stroke="#4FA8D8" stroke-width="0.5" fill="none" opacity="0.28"/>
<path d="M 1060 235 L 1070 242.4 L 1090 242.5 L 1110 242.1 L 1130 241.2 L 1150 240.0 L 1170 238.5 L 1190 236.7 L 1210 234.9 L 1230 233.0 L 1250 231.3 L 1270 229.8 L 1290 228.6 L 1310 227.8 L 1330 227.5 L 1350 227.6 L 1370 228.2 L 1390 229.2 L 1410 230.6 L 1430 232.3 L 1450 234.1 L 1470 235.9 L 1490 237.8 L 1510 239.4 L 1530 240.8 L 1550 241.8 L 1570 242.4 L 1590 242.5 " stroke="#4FA8D8" stroke-width="0.6" fill="none" opacity="0.31"/>
<path d="M 1060 290 L 1070 298.2 L 1090 297.0 L 1110 295.3 L 1130 293.4 L 1150 291.2 L 1170 288.9 L 1190 286.8 L 1210 284.8 L 1230 283.1 L 1250 281.9 L 1270 281.2 L 1290 281.0 L 1310 281.4 L 1330 282.3 L 1350 283.7 L 1370 285.5 L 1390 287.6 L 1410 289.8 L 1430 292.0 L 1450 294.1 L 1470 296.0 L 1490 297.5 L 1510 298.5 L 1530 299.0 L 1550 298.9 L 1570 298.3 L 1590 297.1 " stroke="#4FA8D8" stroke-width="0.7" fill="none" opacity="0.34"/>
<path d="M 1060 345 L 1070 350.3 L 1090 347.9 L 1110 345.3 L 1130 342.7 L 1150 340.3 L 1170 338.1 L 1190 336.4 L 1210 335.2 L 1230 334.6 L 1250 334.6 L 1270 335.3 L 1290 336.6 L 1310 338.4 L 1330 340.7 L 1350 343.2 L 1370 345.8 L 1390 348.4 L 1410 350.7 L 1430 352.7 L 1450 354.2 L 1470 355.2 L 1490 355.5 L 1510 355.2 L 1530 354.2 L 1550 352.6 L 1570 350.6 L 1590 348.3 " stroke="#7DD3E8" stroke-width="0.8" fill="none" opacity="0.37"/>
<path d="M 1060 400 L 1070 399.2 L 1090 396.3 L 1110 393.6 L 1130 391.3 L 1150 389.5 L 1170 388.4 L 1190 388.0 L 1210 388.4 L 1230 389.4 L 1250 391.2 L 1270 393.5 L 1290 396.2 L 1310 399.1 L 1330 402.1 L 1350 405.0 L 1370 407.5 L 1390 409.6 L 1410 411.1 L 1430 411.9 L 1450 411.9 L 1470 411.3 L 1490 409.9 L 1510 407.9 L 1530 405.4 L 1550 402.6 L 1570 399.6 L 1590 396.6 " stroke="#4FA8D8" stroke-width="0.9" fill="none" opacity="0.40"/>
<path d="M 1060 455 L 1070 446.6 L 1090 444.3 L 1110 442.6 L 1130 441.7 L 1150 441.6 L 1170 442.3 L 1190 443.8 L 1210 446.1 L 1230 448.8 L 1250 452.0 L 1270 455.3 L 1290 458.7 L 1310 461.8 L 1330 464.5 L 1350 466.5 L 1370 467.9 L 1390 468.5 L 1410 468.2 L 1430 467.1 L 1450 465.3 L 1470 462.8 L 1490 459.8 L 1510 456.6 L 1530 453.2 L 1550 449.9 L 1570 447.0 L 1590 444.6 " stroke="#4FA8D8" stroke-width="1.0" fill="none" opacity="0.43"/>
<circle cx="1241.5" cy="273.4" r="2.2" fill="#9DE5F2" opacity="0.65"/>
<circle cx="1184.0" cy="376.0" r="2.2" fill="#9DE5F2" opacity="0.81"/>
<circle cx="1391.6" cy="230.4" r="1.0" fill="#7DD3E8" opacity="0.49"/>
<circle cx="1475.0" cy="352.7" r="1.7" fill="#7DD3E8" opacity="0.60"/>
<circle cx="1194.7" cy="299.3" r="1.3" fill="#9DE5F2" opacity="0.53"/>
<circle cx="1415.3" cy="357.7" r="1.0" fill="#9DE5F2" opacity="0.74"/>
<circle cx="1419.7" cy="199.9" r="1.3" fill="#7DD3E8" opacity="0.42"/>
<circle cx="1572.1" cy="354.5" r="1.0" fill="#7DD3E8" opacity="0.80"/>
<circle cx="1372.1" cy="397.3" r="2.2" fill="#7DD3E8" opacity="0.51"/>
<circle cx="1411.5" cy="112.2" r="1.0" fill="#9DE5F2" opacity="0.50"/>
<circle cx="1484.0" cy="388.4" r="2.2" fill="#7DD3E8" opacity="0.51"/>
<circle cx="1505.7" cy="292.6" r="2.2" fill="#9DE5F2" opacity="0.84"/>
<circle cx="1381.8" cy="490.0" r="2.2" fill="#9DE5F2" opacity="0.72"/>
<circle cx="1337.3" cy="442.2" r="2.2" fill="#9DE5F2" opacity="0.73"/>
<path d="M 1060 470 Q 1330 430, 1600 460" stroke="#7DD3E8" stroke-width="0.7" fill="none" opacity="0.55"/>
</g>
</svg>
